<svg version="1.1" xmlns="http://www.w3.org/2000/svg" viewBox="0 0 999.0510591883976 1047.8578083912007" width="999.0510591883976" height="1047.8578083912007" filter="invert(93%) hue-rotate(180deg)">
  <!-- svg-source:excalidraw -->
  
  <defs>
    <style class="style-fonts">
      @font-face {
        font-family: "Virgil";
        src: url("https://excalidraw.com/Virgil.woff2");
      }
      @font-face {
        font-family: "Cascadia";
        src: url("https://excalidraw.com/Cascadia.woff2");
      }
    </style>
  </defs>
  <g stroke-linecap="round" transform="translate(99.82390790938098 148.63072676581214) rotate(0 421.7894374324396 421.7894374324392)"><path d="M843.58 421.79 C843.58 428.48, 843.42 435.18, 843.1 441.86 C842.78 448.54, 842.3 455.22, 841.67 461.88 C841.03 468.54, 840.24 475.19, 839.29 481.82 C838.33 488.44, 837.22 495.04, 835.96 501.61 C834.69 508.18, 833.27 514.73, 831.69 521.23 C830.11 527.73, 828.38 534.2, 826.49 540.62 C824.61 547.04, 822.57 553.42, 820.38 559.74 C818.19 566.07, 815.85 572.34, 813.37 578.55 C810.88 584.76, 808.24 590.92, 805.46 597.01 C802.68 603.09, 799.76 609.12, 796.69 615.06 C793.63 621.01, 790.41 626.89, 787.07 632.68 C783.72 638.48, 780.24 644.2, 776.62 649.83 C773 655.45, 769.25 661, 765.37 666.45 C761.49 671.9, 757.47 677.26, 753.34 682.52 C749.2 687.78, 744.94 692.95, 740.56 698 C736.18 703.06, 731.67 708.02, 727.05 712.86 C722.44 717.7, 717.7 722.44, 712.86 727.05 C708.02 731.67, 703.06 736.18, 698 740.56 C692.95 744.94, 687.78 749.2, 682.52 753.34 C677.26 757.47, 671.9 761.49, 666.45 765.37 C661 769.25, 655.45 773, 649.83 776.62 C644.2 780.24, 638.48 783.72, 632.68 787.07 C626.89 790.41, 621.01 793.63, 615.06 796.69 C609.12 799.76, 603.09 802.68, 597.01 805.46 C590.92 808.24, 584.76 810.88, 578.55 813.37 C572.34 815.85, 566.07 818.19, 559.74 820.38 C553.42 822.57, 547.04 824.61, 540.62 826.49 C534.2 828.38, 527.73 830.11, 521.23 831.69 C514.73 833.27, 508.18 834.69, 501.61 835.96 C495.04 837.22, 488.44 838.33, 481.82 839.29 C475.19 840.24, 468.54 841.03, 461.88 841.67 C455.22 842.3, 448.54 842.78, 441.86 843.1 C435.18 843.42, 428.48 843.58, 421.79 843.58 C415.1 843.58, 408.4 843.42, 401.72 843.1 C395.04 842.78, 388.36 842.3, 381.7 841.67 C375.04 841.03, 368.38 840.24, 361.76 839.29 C355.14 838.33, 348.53 837.22, 341.97 835.96 C335.4 834.69, 328.85 833.27, 322.35 831.69 C315.85 830.11, 309.38 828.38, 302.96 826.49 C296.54 824.61, 290.16 822.57, 283.84 820.38 C277.51 818.19, 271.24 815.85, 265.03 813.37 C258.82 810.88, 252.66 808.24, 246.57 805.46 C240.49 802.68, 234.46 799.76, 228.51 796.69 C222.57 793.63, 216.69 790.41, 210.89 787.07 C205.1 783.72, 199.38 780.24, 193.75 776.62 C188.12 773, 182.58 769.25, 177.13 765.37 C171.68 761.49, 166.32 757.47, 161.06 753.34 C155.8 749.2, 150.63 744.94, 145.58 740.56 C140.52 736.18, 135.56 731.67, 130.72 727.05 C125.88 722.44, 121.14 717.7, 116.53 712.86 C111.91 708.02, 107.4 703.06, 103.02 698 C98.64 692.95, 94.38 687.78, 90.24 682.52 C86.11 677.26, 82.09 671.9, 78.21 666.45 C74.33 661, 70.57 655.45, 66.96 649.83 C63.34 644.2, 59.85 638.48, 56.51 632.68 C53.16 626.89, 49.95 621.01, 46.89 615.06 C43.82 609.12, 40.9 603.09, 38.12 597.01 C35.34 590.92, 32.7 584.76, 30.21 578.55 C27.73 572.34, 25.39 566.07, 23.2 559.74 C21.01 553.42, 18.97 547.04, 17.09 540.62 C15.2 534.2, 13.47 527.73, 11.89 521.23 C10.31 514.73, 8.89 508.18, 7.62 501.61 C6.36 495.04, 5.25 488.44, 4.29 481.82 C3.34 475.19, 2.55 468.54, 1.91 461.88 C1.27 455.22, 0.8 448.54, 0.48 441.86 C0.16 435.18, 0 428.48, 0 421.79 C0 415.1, 0.16 408.4, 0.48 401.72 C0.8 395.04, 1.27 388.36, 1.91 381.7 C2.55 375.04, 3.34 368.38, 4.29 361.76 C5.25 355.14, 6.36 348.53, 7.62 341.97 C8.89 335.4, 10.31 328.85, 11.89 322.35 C13.47 315.85, 15.2 309.38, 17.09 302.96 C18.97 296.54, 21.01 290.16, 23.2 283.84 C25.39 277.51, 27.73 271.24, 30.21 265.03 C32.7 258.82, 35.34 252.66, 38.12 246.57 C40.9 240.49, 43.82 234.46, 46.89 228.51 C49.95 222.57, 53.16 216.69, 56.51 210.89 C59.85 205.1, 63.34 199.38, 66.96 193.75 C70.57 188.12, 74.33 182.58, 78.21 177.13 C82.09 171.68, 86.11 166.32, 90.24 161.06 C94.38 155.8, 98.64 150.63, 103.02 145.58 C107.4 140.52, 111.91 135.56, 116.53 130.72 C121.14 125.88, 125.88 121.14, 130.72 116.53 C135.56 111.91, 140.52 107.4, 145.58 103.02 C150.63 98.64, 155.8 94.38, 161.06 90.24 C166.32 86.11, 171.68 82.09, 177.13 78.21 C182.58 74.33, 188.12 70.57, 193.75 66.96 C199.38 63.34, 205.1 59.85, 210.89 56.51 C216.69 53.16, 222.57 49.95, 228.51 46.89 C234.46 43.82, 240.49 40.9, 246.57 38.12 C252.66 35.34, 258.82 32.7, 265.03 30.21 C271.24 27.73, 277.51 25.39, 283.84 23.2 C290.16 21.01, 296.54 18.97, 302.96 17.09 C309.38 15.2, 315.85 13.47, 322.35 11.89 C328.85 10.31, 335.4 8.89, 341.97 7.62 C348.53 6.36, 355.14 5.25, 361.76 4.29 C368.38 3.34, 375.04 2.55, 381.7 1.91 C388.36 1.27, 395.04 0.8, 401.72 0.48 C408.4 0.16, 415.1 0, 421.79 0 C428.48 0, 435.18 0.16, 441.86 0.48 C448.54 0.8, 455.22 1.27, 461.88 1.91 C468.54 2.55, 475.19 3.34, 481.82 4.29 C488.44 5.25, 495.04 6.36, 501.61 7.62 C508.18 8.89, 514.73 10.31, 521.23 11.89 C527.73 13.47, 534.2 15.2, 540.62 17.09 C547.04 18.97, 553.42 21.01, 559.74 23.2 C566.07 25.39, 572.34 27.73, 578.55 30.21 C584.76 32.7, 590.92 35.34, 597.01 38.12 C603.09 40.9, 609.12 43.82, 615.06 46.89 C621.01 49.95, 626.89 53.16, 632.68 56.51 C638.48 59.85, 644.2 63.34, 649.83 66.96 C655.45 70.57, 661 74.33, 666.45 78.21 C671.9 82.09, 677.26 86.11, 682.52 90.24 C687.78 94.38, 692.95 98.64, 698 103.02 C703.06 107.4, 708.02 111.91, 712.86 116.53 C717.7 121.14, 722.44 125.88, 727.05 130.72 C731.67 135.56, 736.18 140.52, 740.56 145.58 C744.94 150.63, 749.2 155.8, 753.34 161.06 C757.47 166.32, 761.49 171.68, 765.37 177.13 C769.25 182.58, 773 188.12, 776.62 193.75 C780.24 199.38, 783.72 205.1, 787.07 210.89 C790.41 216.69, 793.63 222.57, 796.69 228.51 C799.76 234.46, 802.68 240.49, 805.46 246.57 C808.24 252.66, 810.88 258.82, 813.37 265.03 C815.85 271.24, 818.19 277.51, 820.38 283.84 C822.57 290.16, 824.61 296.54, 826.49 302.96 C828.38 309.38, 830.11 315.85, 831.69 322.35 C833.27 328.85, 834.69 335.4, 835.96 341.97 C837.22 348.53, 838.33 355.14, 839.29 361.76 C840.24 368.38, 841.03 375.04, 841.67 381.7 C842.3 388.36, 842.78 395.04, 843.1 401.72 C843.42 408.4, 843.58 415.1, 843.58 421.79" stroke="none" stroke-width="0" fill="#15aabf"></path><path d="M843.58 421.79 C843.58 428.48, 843.42 435.18, 843.1 441.86 C842.78 448.54, 842.3 455.22, 841.67 461.88 C841.03 468.54, 840.24 475.19, 839.29 481.82 C838.33 488.44, 837.22 495.04, 835.96 501.61 C834.69 508.18, 833.27 514.73, 831.69 521.23 C830.11 527.73, 828.38 534.2, 826.49 540.62 C824.61 547.04, 822.57 553.42, 820.38 559.74 C818.19 566.07, 815.85 572.34, 813.37 578.55 C810.88 584.76, 808.24 590.92, 805.46 597.01 C802.68 603.09, 799.76 609.12, 796.69 615.06 C793.63 621.01, 790.41 626.89, 787.07 632.68 C783.72 638.48, 780.24 644.2, 776.62 649.83 C773 655.45, 769.25 661, 765.37 666.45 C761.49 671.9, 757.47 677.26, 753.34 682.52 C749.2 687.78, 744.94 692.95, 740.56 698 C736.18 703.06, 731.67 708.02, 727.05 712.86 C722.44 717.7, 717.7 722.44, 712.86 727.05 C708.02 731.67, 703.06 736.18, 698 740.56 C692.95 744.94, 687.78 749.2, 682.52 753.34 C677.26 757.47, 671.9 761.49, 666.45 765.37 C661 769.25, 655.45 773, 649.83 776.62 C644.2 780.24, 638.48 783.72, 632.68 787.07 C626.89 790.41, 621.01 793.63, 615.06 796.69 C609.12 799.76, 603.09 802.68, 597.01 805.46 C590.92 808.24, 584.76 810.88, 578.55 813.37 C572.34 815.85, 566.07 818.19, 559.74 820.38 C553.42 822.57, 547.04 824.61, 540.62 826.49 C534.2 828.38, 527.73 830.11, 521.23 831.69 C514.73 833.27, 508.18 834.69, 501.61 835.96 C495.04 837.22, 488.44 838.33, 481.82 839.29 C475.19 840.24, 468.54 841.03, 461.88 841.67 C455.22 842.3, 448.54 842.78, 441.86 843.1 C435.18 843.42, 428.48 843.58, 421.79 843.58 C415.1 843.58, 408.4 843.42, 401.72 843.1 C395.04 842.78, 388.36 842.3, 381.7 841.67 C375.04 841.03, 368.38 840.24, 361.76 839.29 C355.14 838.33, 348.53 837.22, 341.97 835.96 C335.4 834.69, 328.85 833.27, 322.35 831.69 C315.85 830.11, 309.38 828.38, 302.96 826.49 C296.54 824.61, 290.16 822.57, 283.84 820.38 C277.51 818.19, 271.24 815.85, 265.03 813.37 C258.82 810.88, 252.66 808.24, 246.57 805.46 C240.49 802.68, 234.46 799.76, 228.51 796.69 C222.57 793.63, 216.69 790.41, 210.89 787.07 C205.1 783.72, 199.38 780.24, 193.75 776.62 C188.12 773, 182.58 769.25, 177.13 765.37 C171.68 761.49, 166.32 757.47, 161.06 753.34 C155.8 749.2, 150.63 744.94, 145.58 740.56 C140.52 736.18, 135.56 731.67, 130.72 727.05 C125.88 722.44, 121.14 717.7, 116.53 712.86 C111.91 708.02, 107.4 703.06, 103.02 698 C98.64 692.95, 94.38 687.78, 90.24 682.52 C86.11 677.26, 82.09 671.9, 78.21 666.45 C74.33 661, 70.57 655.45, 66.96 649.83 C63.34 644.2, 59.85 638.48, 56.51 632.68 C53.16 626.89, 49.95 621.01, 46.89 615.06 C43.82 609.12, 40.9 603.09, 38.12 597.01 C35.34 590.92, 32.7 584.76, 30.21 578.55 C27.73 572.34, 25.39 566.07, 23.2 559.74 C21.01 553.42, 18.97 547.04, 17.09 540.62 C15.2 534.2, 13.47 527.73, 11.89 521.23 C10.31 514.73, 8.89 508.18, 7.62 501.61 C6.36 495.04, 5.25 488.44, 4.29 481.82 C3.34 475.19, 2.55 468.54, 1.91 461.88 C1.27 455.22, 0.8 448.54, 0.48 441.86 C0.16 435.18, 0 428.48, 0 421.79 C0 415.1, 0.16 408.4, 0.48 401.72 C0.8 395.04, 1.27 388.36, 1.91 381.7 C2.55 375.04, 3.34 368.38, 4.29 361.76 C5.25 355.14, 6.36 348.53, 7.62 341.97 C8.89 335.4, 10.31 328.85, 11.89 322.35 C13.47 315.85, 15.2 309.38, 17.09 302.96 C18.97 296.54, 21.01 290.16, 23.2 283.84 C25.39 277.51, 27.73 271.24, 30.21 265.03 C32.7 258.82, 35.34 252.66, 38.12 246.57 C40.9 240.49, 43.82 234.46, 46.89 228.51 C49.95 222.57, 53.16 216.69, 56.51 210.89 C59.85 205.1, 63.34 199.38, 66.96 193.75 C70.57 188.12, 74.33 182.58, 78.21 177.13 C82.09 171.68, 86.11 166.32, 90.24 161.06 C94.38 155.8, 98.64 150.63, 103.02 145.58 C107.4 140.52, 111.91 135.56, 116.53 130.72 C121.14 125.88, 125.88 121.14, 130.72 116.53 C135.56 111.91, 140.52 107.4, 145.58 103.02 C150.63 98.64, 155.8 94.38, 161.06 90.24 C166.32 86.11, 171.68 82.09, 177.13 78.21 C182.58 74.33, 188.12 70.57, 193.75 66.96 C199.38 63.34, 205.1 59.85, 210.89 56.51 C216.69 53.16, 222.57 49.95, 228.51 46.89 C234.46 43.82, 240.49 40.9, 246.57 38.12 C252.66 35.34, 258.82 32.7, 265.03 30.21 C271.24 27.73, 277.51 25.39, 283.84 23.2 C290.16 21.01, 296.54 18.97, 302.96 17.09 C309.38 15.2, 315.85 13.47, 322.35 11.89 C328.85 10.31, 335.4 8.89, 341.97 7.62 C348.53 6.36, 355.14 5.25, 361.76 4.29 C368.38 3.34, 375.04 2.55, 381.7 1.91 C388.36 1.27, 395.04 0.8, 401.72 0.48 C408.4 0.16, 415.1 0, 421.79 0 C428.48 0, 435.18 0.16, 441.86 0.48 C448.54 0.8, 455.22 1.27, 461.88 1.91 C468.54 2.55, 475.19 3.34, 481.82 4.29 C488.44 5.25, 495.04 6.36, 501.61 7.62 C508.18 8.89, 514.73 10.31, 521.23 11.89 C527.73 13.47, 534.2 15.2, 540.62 17.09 C547.04 18.97, 553.42 21.01, 559.74 23.2 C566.07 25.39, 572.34 27.73, 578.55 30.21 C584.76 32.7, 590.92 35.34, 597.01 38.12 C603.09 40.9, 609.12 43.82, 615.06 46.89 C621.01 49.95, 626.89 53.16, 632.68 56.51 C638.48 59.85, 644.2 63.34, 649.83 66.96 C655.45 70.57, 661 74.33, 666.45 78.21 C671.9 82.09, 677.26 86.11, 682.52 90.24 C687.78 94.38, 692.95 98.64, 698 103.02 C703.06 107.4, 708.02 111.91, 712.86 116.53 C717.7 121.14, 722.44 125.88, 727.05 130.72 C731.67 135.56, 736.18 140.52, 740.56 145.58 C744.94 150.63, 749.2 155.8, 753.34 161.06 C757.47 166.32, 761.49 171.68, 765.37 177.13 C769.25 182.58, 773 188.12, 776.62 193.75 C780.24 199.38, 783.72 205.1, 787.07 210.89 C790.41 216.69, 793.63 222.57, 796.69 228.51 C799.76 234.46, 802.68 240.49, 805.46 246.57 C808.24 252.66, 810.88 258.82, 813.37 265.03 C815.85 271.24, 818.19 277.51, 820.38 283.84 C822.57 290.16, 824.61 296.54, 826.49 302.96 C828.38 309.38, 830.11 315.85, 831.69 322.35 C833.27 328.85, 834.69 335.4, 835.96 341.97 C837.22 348.53, 838.33 355.14, 839.29 361.76 C840.24 368.38, 841.03 375.04, 841.67 381.7 C842.3 388.36, 842.78 395.04, 843.1 401.72 C843.42 408.4, 843.58 415.1, 843.58 421.79" stroke="#000000" stroke-width="4" fill="none"></path></g><g stroke-linecap="round" transform="translate(43.220159387802596 92.02690859060567) rotate(0 472.9154499002975 472.9154499002975)"><path d="M473 0 L945.83 473 L473 945.83 L0 473" stroke="none" stroke-width="0" fill="#40c057" fill-rule="evenodd"></path><path d="M473 0 C640.72 167.78, 808.45 335.57, 945.83 473 M473 0 C641.08 168.14, 809.16 336.28, 945.83 473 M945.83 473 C796.56 622.27, 647.3 771.53, 473 945.83 M945.83 473 C767.34 651.49, 588.84 829.99, 473 945.83 M473 945.83 C292.62 765.52, 112.25 585.21, 0 473 M473 945.83 C323.77 796.65, 174.54 647.48, 0 473 M0 473 C178.78 294.22, 357.55 115.45, 473 0 M0 473 C175.8 297.2, 351.6 121.4, 473 0" stroke="#000000" stroke-width="4" fill="none"></path></g><g stroke-linecap="round" transform="translate(222.1610463046245 272.7938352236624) rotate(0 297.6263638014093 297.62636380140884)"><path d="M0 0 L595.25 0 L595.25 595.25 L0 595.25" stroke="none" stroke-width="0" fill="#fd7e14"></path><path d="M0 0 C183.92 0, 367.85 0, 595.25 0 M0 0 C235.69 0, 471.38 0, 595.25 0 M595.25 0 C595.25 158, 595.25 316, 595.25 595.25 M595.25 0 C595.25 136.21, 595.25 272.43, 595.25 595.25 M595.25 595.25 C431.23 595.25, 267.2 595.25, 0 595.25 M595.25 595.25 C463.22 595.25, 331.19 595.25, 0 595.25 M0 595.25 C0 384.55, 0 173.86, 0 0 M0 595.25 C0 427.97, 0 260.68, 0 0" stroke="#000000" stroke-width="4" fill="none"></path></g><g transform="translate(249.05065450372695 26.217277796162307) rotate(47.33937029100356 203.67887322884508 414.3510124912982)"><text x="0" y="666.7020249825968" font-family="Cascadia, Segoe UI Emoji" font-size="691.1707652608341px" fill="#000000" text-anchor="start" style="white-space: pre;" direction="ltr">f</text></g><g transform="translate(476.47213993085734 249.96462561859062) rotate(0 197.02644687068687 385.0971461563431)"><text x="0" y="618.1942923126853" font-family="Cascadia, Segoe UI Emoji" font-size="644.8138261222481px" fill="#000000" text-anchor="start" style="white-space: pre;" direction="ltr">m</text></g></svg>