<svg version="1.1" xmlns="http://www.w3.org/2000/svg" viewBox="0 0 2345.416720450013 387.4600897972414" width="2345.416720450013" height="387.4600897972414">
  <!-- svg-source:excalidraw -->
  
  <defs>
    <style class="style-fonts">
      @font-face {
        font-family: "Virgil";
        src: url("https://excalidraw.com/Virgil.woff2");
      }
      @font-face {
        font-family: "Cascadia";
        src: url("https://excalidraw.com/Cascadia.woff2");
      }
    </style>
  </defs>
  <g stroke-linecap="round" transform="translate(10 23.110774676953042) rotate(0 1162.7083602250066 177.17465756014417)"><path d="M0 0 L2325.42 0 L2325.42 354.35 L0 354.35" stroke="none" stroke-width="0" fill="#fd7e14"></path><path d="M0 0 C850.7 0, 1701.39 0, 2325.42 0 M0 0 C753.02 0, 1506.04 0, 2325.42 0 M2325.42 0 C2325.42 114.74, 2325.42 229.48, 2325.42 354.35 M2325.42 0 C2325.42 125.35, 2325.42 250.71, 2325.42 354.35 M2325.42 354.35 C1396.19 354.35, 466.96 354.35, 0 354.35 M2325.42 354.35 C1425.28 354.35, 525.14 354.35, 0 354.35 M0 354.35 C0 263.4, 0 172.45, 0 0 M0 354.35 C0 230.42, 0 106.48, 0 0" stroke="#000000" stroke-width="4" fill="none"></path></g><g transform="translate(34.91490570797578 10) rotate(0 1115.4259323605415 175.7058090944115)"><text x="0" y="282.4116181888227" font-family="Cascadia, Segoe UI Emoji" font-size="292.5924099419083px" fill="#000000" text-anchor="start" style="white-space: pre;" direction="ltr">flakit_master</text></g></svg>